<?xml version="1.0" encoding="UTF-8" standalone="no"?>
<svg
   id="svg"
   version="1.1"
   width="400"
   height="400"
   viewBox="-254.545454545, -254.545454545, 654.545454545,654.545454545"
   sodipodi:docname="logo_monochrome.svg"
   inkscape:version="1.3.2 (091e20ef0f, 2023-11-25, custom)"
   xmlns:inkscape="http://www.inkscape.org/namespaces/inkscape"
   xmlns:sodipodi="http://sodipodi.sourceforge.net/DTD/sodipodi-0.dtd"
   xmlns="http://www.w3.org/2000/svg"
   xmlns:svg="http://www.w3.org/2000/svg">
  <defs
     id="defs1" />
  <sodipodi:namedview
     id="namedview1"
     pagecolor="#ffffff"
     bordercolor="#000000"
     borderopacity="0.25"
     inkscape:showpageshadow="2"
     inkscape:pageopacity="0.0"
     inkscape:pagecheckerboard="0"
     inkscape:deskcolor="#d1d1d1"
     inkscape:zoom="2.0788939"
     inkscape:cx="212.13204"
     inkscape:cy="211.65101"
     inkscape:window-width="2560"
     inkscape:window-height="1374"
     inkscape:window-x="0"
     inkscape:window-y="0"
     inkscape:window-maximized="1"
     inkscape:current-layer="svg" />
  <g
     id="svgg"
     transform="matrix(0.95442112,0,0,0.95442112,-117.70251,-118.53586)">
    <path
       id="path1"
       d="m 101.752,78.58 c -0.123,0.322 -0.14,19.178 -0.036,41.903 0.205,44.807 0.029,40.694 2.249,52.642 0.552,2.969 2.606,9.797 3.814,12.675 0.277,0.66 0.913,2.239 1.412,3.509 1.983,5.038 8.65,16.866 10.82,19.195 0.434,0.466 0.789,0.965 0.789,1.11 0,0.145 0.382,0.696 0.849,1.225 0.466,0.528 1.796,2.131 2.954,3.561 3.417,4.219 12.617,12.864 15.955,14.992 0.683,0.435 1.602,1.123 2.042,1.529 1.493,1.375 8.781,5.693 13.2,7.821 6.04,2.909 6.536,3.127 8.695,3.829 1.043,0.339 2.213,0.782 2.6,0.984 0.388,0.202 1.515,0.585 2.505,0.851 0.99,0.267 2.61,0.793 3.6,1.169 l 1.8,0.685 0.102,38.27 0.102,38.27 h 24.396 24.396 l 0.102,-38.252 0.102,-38.252 3.8,-1.177 c 2.09,-0.647 4.34,-1.407 5,-1.688 0.66,-0.281 1.83,-0.739 2.6,-1.018 3.645,-1.32 10.945,-4.914 14.166,-6.974 1.237,-0.791 2.337,-1.439 2.445,-1.439 0.353,0 7.532,-5.302 10.189,-7.524 7.969,-6.667 16.786,-16.95 21.328,-24.876 1.679,-2.929 6.272,-12.23 6.272,-12.701 0,-0.239 0.253,-0.944 0.563,-1.567 1.501,-3.019 3.988,-11.239 5.002,-16.532 1.874,-9.789 1.817,-8.155 1.826,-51.6 l 0.009,-41 -24.3,-0.103 -24.3,-0.103 v 35.834 c 0,35.769 -0.219,43.152 -1.42,47.972 -1.461,5.859 -1.435,5.784 -3.823,10.8 -10.364,21.773 -35.281,32.691 -58.757,25.748 -3.232,-0.956 -10.962,-4.853 -12.32,-6.211 -0.295,-0.295 -0.67,-0.537 -0.833,-0.537 -0.163,0 -0.651,-0.315 -1.085,-0.7 -0.434,-0.385 -1.728,-1.475 -2.875,-2.423 -3.453,-2.853 -9.687,-9.995 -9.687,-11.097 0,-0.129 -0.45,-0.823 -1,-1.544 -0.55,-0.722 -1,-1.472 -1,-1.667 0,-0.196 -0.482,-1.349 -1.071,-2.563 -1.738,-3.58 -2.511,-5.857 -3.262,-9.606 -0.242,-1.21 -0.562,-2.74 -0.71,-3.4 -0.149,-0.66 -0.38,-19.02 -0.514,-40.8 L 150.2,78.2 126.089,78.097 c -20.873,-0.089 -24.142,-0.025 -24.337,0.483"
       stroke="none"
       fill="#ebebeb"
       fill-rule="evenodd" />
  </g>
</svg>
